<svg width="80" height="80" viewBox="0 0 80 80" fill="none" xmlns="http://www.w3.org/2000/svg">
<rect width="80" height="80" fill="#7044CC"/>
<path d="M51.3772 34.4261C51.5289 33.9224 51.3772 33.553 50.66 33.553H48.2843C47.6798 33.553 47.4035 33.8726 47.2519 34.2236C47.2519 34.2236 46.044 37.1691 44.3323 39.0791C43.7798 39.6348 43.5274 39.8103 43.2262 39.8103C43.0756 39.8103 42.8568 39.6348 42.8568 39.1311V34.4261C42.8568 33.8216 42.6824 33.553 42.1786 33.553H38.4455C38.0685 33.553 37.841 33.8325 37.841 34.099C37.841 34.671 38.6968 34.8031 38.7845 36.4151V39.9121C38.7845 40.6781 38.647 40.8178 38.3436 40.8178C37.5387 40.8178 35.58 37.8614 34.4176 34.4771C34.1912 33.8195 33.9626 33.5541 33.356 33.5541H30.9813C30.302 33.5541 30.1666 33.8736 30.1666 34.2246C30.1666 34.8551 30.9715 37.9751 33.916 42.1016C35.879 44.9193 38.6426 46.4468 41.1603 46.4468C42.6694 46.4468 42.8557 46.1077 42.8557 45.5227V43.3929C42.8557 42.7147 42.9998 42.5782 43.4775 42.5782C43.8285 42.5782 44.433 42.7559 45.8425 44.1133C47.4523 45.7231 47.7188 46.4457 48.6234 46.4457H50.998C51.6762 46.4457 52.0153 46.1066 51.8203 45.4371C51.6069 44.7709 50.8377 43.8013 49.8172 42.6541C49.2625 41.9997 48.4338 41.2956 48.1814 40.9435C47.8293 40.4896 47.9311 40.2891 48.1814 39.8861C48.1825 39.8872 51.076 35.8117 51.3772 34.4261Z" fill="white"/>
</svg>
